Coordinates
version=1
nRows=17
nColumns=24
inDegrees=yes

Units are S.I. units (second, meters, Newtons, ...)
Angles are in degrees.

endheader
time	pelvis_tilt	pelvis_list	pelvis_rotation	pelvis_tx	pelvis_ty	pelvis_tz	hip_flexion_r	hip_adduction_r	hip_rotation_r	knee_angle_r	ankle_angle_r	subtalar_angle_r	mtp_angle_r	hip_flexion_l	hip_adduction_l	hip_rotation_l	knee_angle_l	ankle_angle_l	subtalar_angle_l	mtp_angle_l	lumbar_extension	lumbar_bending	lumbar_rotation
      1.77933333	     -0.76538289	      3.10864295	     -9.09112788	      1.51715326	      1.02254227	      0.27042931	     17.58278333	     -6.19846528	     -0.30617129	    -60.19051820	      5.91866844	    -11.55202600	     -1.97885967	     12.66643825	      8.65206124	     -1.27178289	    -20.64648752	      9.36056894	    -14.33325924	     -2.88672789	      1.84060252	     -5.44369949	      5.57387383
      1.78350000	     -0.76904052	      3.01692811	     -8.96526441	      1.52184017	      1.02331902	      0.27006385	     18.16626036	     -5.93848652	     -0.23485300	    -59.69048607	      6.04670060	    -11.70855094	     -2.03225102	     12.18174738	      8.61844838	     -1.20038390	    -20.28216981	      9.43090430	    -14.16814391	     -2.94254723	      1.72817798	     -5.34380006	      5.31456638
      1.78766667	     -0.78766602	      2.92024895	     -8.82447386	      1.52652933	      1.02402841	      0.26970498	     18.74168436	     -5.67546618	     -0.18460124	    -59.14525932	      6.22614893	    -11.83359654	     -2.06719973	     11.72581853	      8.57607720	     -1.12198462	    -19.93931408	      9.46748615	    -14.03701685	     -2.98152892	      1.64269159	     -5.25309660	      5.15989285
      1.79183333	     -0.78079712	      2.84546779	     -8.69849214	      1.53121614	      1.02470398	      0.26936000	     19.29055954	     -5.44108575	     -0.12156143	    -58.57650522	      6.35343944	    -11.94014786	     -2.12259364	     11.24420071	      8.56216544	     -1.04047241	    -19.59144095	      9.53124318	    -13.90116897	     -3.03760144	      1.53157963	     -5.18150238	      4.93908791
      1.79600000	     -0.81547251	      2.77301789	     -8.54978581	      1.53589027	      1.02527444	      0.26901158	     19.86485255	     -5.20986512	     -0.08336656	    -57.97241986	      6.51837764	    -12.00531621	     -2.13668237	     10.81855595	      8.54394448	     -0.94554277	    -19.25964942	      9.56553498	    -13.79598227	     -3.05283259	      1.48968292	     -5.11770690	      4.86720502
      1.80016667	     -0.82161362	      2.66638693	     -8.37872391	      1.54057122	      1.02584154	      0.26864268	     20.37649689	     -4.94825182	     -0.06208540	    -57.31384681	      6.60361065	    -12.10274226	     -2.17762550	     10.36894693	      8.49978533	     -0.80393313	    -18.96662103	      9.63687867	    -13.69312058	     -3.09014093	      1.36143382	     -5.01803585	      4.64357874
      1.80433333	     -0.85398451	      2.59321968	     -8.21038053	      1.54524590	      1.02630500	      0.26829880	     20.91629646	     -4.72395974	     -0.04153581	    -56.63645822	      6.69603529	    -12.16019119	     -2.21748591	      9.95912810	      8.48295797	     -0.67906841	    -18.67495568	      9.69732362	    -13.60304248	     -3.12617890	      1.28800767	     -4.95531095	      4.43994138
      1.80850000	     -0.88567490	      2.51629344	     -8.03692786	      1.54990495	      1.02672194	      0.26794490	     21.43963583	     -4.49987208	     -0.02353169	    -55.92369674	      6.77359556	    -12.19273059	     -2.25041269	      9.55490902	      8.46401097	     -0.54052628	    -18.39949933	      9.76539816	    -13.51615716	     -3.15466276	      1.22495874	     -4.88694981	      4.27210522
      1.81266667	     -0.90407260	      2.45529436	     -7.85708089	      1.55453314	      1.02709382	      0.26760214	     21.94337491	     -4.29813547	     -0.00621387	    -55.18942972	      6.81312108	    -12.22918959	     -2.31579319	      9.14670914	      8.46365815	     -0.38589409	    -18.12822119	      9.83645179	    -13.45493661	     -3.21448915	      1.12955014	     -4.84220917	      3.99165903
      1.81683333	     -0.93728888	      2.37617325	     -7.65525240	      1.55918080	      1.02741441	      0.26724313	     22.43193777	     -4.08523003	     -0.01512921	    -54.40424443	      6.85558203	    -12.22658486	     -2.37161883	      8.76285997	      8.44290072	     -0.21403415	    -17.89176400	      9.92197910	    -13.39982020	     -3.26517540	      1.05915686	     -4.77735287	      3.79542860
      1.82100000	     -0.97440158	      2.30999339	     -7.44998167	      1.56383337	      1.02766880	      0.26689224	     22.91811297	     -3.89142004	     -0.02483222	    -53.60470098	      6.90351047	    -12.18208598	     -2.39835457	      8.38983189	      8.43411234	     -0.03076138	    -17.66377596	      9.99687548	    -13.32748547	     -3.28884615	      1.00440898	     -4.72931531	      3.69093073
      1.82516667	     -1.02885818	      2.24748472	     -7.21846948	      1.56843371	      1.02784661	      0.26650685	     23.40803324	     -3.71147745	     -0.05460214	    -52.77118766	      6.91048127	    -12.14298806	     -2.42754292	      8.04755698	      8.42999866	      0.18552029	    -17.45307235	     10.08373311	    -13.28438911	     -3.31365448	      0.95149093	     -4.68267427	      3.50505600
      1.82933333	     -1.07566200	      2.18525029	     -6.98888057	      1.57304972	      1.02801060	      0.26614255	     23.87229802	     -3.53439516	     -0.08127240	    -51.89925884	      6.88791832	    -12.09603133	     -2.45796102	      7.69983736	      8.42522696	      0.40592177	    -17.24988970	     10.16627208	    -13.26257497	     -3.34074475	      0.89587371	     -4.64215184	      3.30033280
      1.83350000	     -1.08971026	      2.13541670	     -6.76723196	      1.57768834	      1.02817988	      0.26580157	     24.28821765	     -3.37340320	     -0.08746594	    -51.00541329	      6.84342642	    -12.05295063	     -2.50833009	      7.30603863	      8.43738836	      0.64262330	    -17.01898428	     10.22653699	    -13.27832556	     -3.39371611	      0.79492404	     -4.61680400	      2.99572448
      1.83766667	     -1.15325231	      2.07636542	     -6.51577051	      1.58227589	      1.02823224	      0.26542179	     24.73998772	     -3.21789871	     -0.13828972	    -50.07445285	      6.80384489	    -11.93813049	     -2.53039875	      6.99079823	      8.43173802	      0.88943395	    -16.84842606	     10.32872565	    -13.25207075	     -3.41569538	      0.76426233	     -4.58090316	      2.87818629
      1.84183333	     -1.19758621	      2.03442700	     -6.25941456	      1.58689652	      1.02826246	      0.26504427	     25.15959481	     -3.08473712	     -0.17510047	    -49.12503993	      6.73257838	    -11.86132982	     -2.56628710	      6.64667757	      8.44947948	      1.17214244	    -16.65729623	     10.41091436	    -13.29007988	     -3.46135947	      0.71420806	     -4.56706045	      2.58994049
      1.84600000	     -1.25813868	      1.99259566	     -6.00605972	      1.59148379	      1.02822808	      0.26468044	     25.58233789	     -2.95421595	     -0.20979305	    -48.14813554	      6.65011893	    -11.74703694	     -2.59687605	      6.32933032	      8.46106955	      1.44912444	    -16.48311330	     10.49626205	    -13.31366469	     -3.50626981	      0.67460046	     -4.54899491	      2.39430892
